<?xml version="1.0" encoding="UTF-8"?>
<svg width="26px" height="22px" viewBox="0 0 26 22" version="1.1" xmlns="http://www.w3.org/2000/svg" xmlns:xlink="http://www.w3.org/1999/xlink">
    <title>folder</title>
    <g id="Symbols" stroke="none" stroke-width="1" fill="none" fill-rule="evenodd">
        <g id="Documents" transform="translate(-2, -2)" fill="#FFFFFF" fill-rule="nonzero">
            <g id="folder" transform="translate(2, 2)">
                <path d="M24,22 L2,22 C0.895,22 0,21.105 0,20 L0,8 C0,7.448 0.448,7 1,7 L25,7 C25.552,7 26,7.448 26,8 L26,20 C26,21.105 25.105,22 24,22 Z" id="Shape"></path>
                <path d="M2,0 L6.868,0 C7.571,0 8.222,0.369 8.583,0.971 L11,5 L0,5 L0,2 C0,0.895 0.895,0 2,0 Z" id="Shape"></path>
                <path d="M24,2 L0,2 L0,5 L26,5 L26,4 C26,2.895 25.105,2 24,2 Z" id="Shape"></path>
            </g>
        </g>
    </g>
</svg>