<?xml version="1.0" encoding="UTF-8"?>
<svg width="30px" height="30px" viewBox="0 0 30 30" version="1.1" xmlns="http://www.w3.org/2000/svg" xmlns:xlink="http://www.w3.org/1999/xlink">
    <title>ic_settings_24px</title>
    <g id="Symbols" stroke="none" stroke-width="1" fill="none" fill-rule="evenodd">
        <g id="Settings" transform="translate(0, 2)">
            <g id="ic_settings_24px" transform="translate(0, -2)">
                <polygon id="Shape" points="0 0 30 0 30 30 0 30"></polygon>
                <path d="M24.2875,16.225 C24.3375,15.825 24.375,15.425 24.375,15 C24.375,14.575 24.3375,14.175 24.2875,13.775 L26.925,11.7125 C27.1625,11.525 27.225,11.1875 27.075,10.9125 L24.575,6.5875 C24.425,6.3125 24.0875,6.2125 23.8125,6.3125 L20.7,7.5625 C20.05,7.0625 19.35,6.65 18.5875,6.3375 L18.1125,3.025 C18.075,2.725 17.8125,2.5 17.5,2.5 L12.5,2.5 C12.1875,2.5 11.925,2.725 11.8875,3.025 L11.4125,6.3375 C10.65,6.65 9.95,7.075 9.3,7.5625 L6.1875,6.3125 C5.9,6.2 5.575,6.3125 5.425,6.5875 L2.925,10.9125 C2.7625,11.1875 2.8375,11.525 3.075,11.7125 L5.7125,13.775 C5.6625,14.175 5.625,14.5875 5.625,15 C5.625,15.4125 5.6625,15.825 5.7125,16.225 L3.075,18.2875 C2.8375,18.475 2.775,18.8125 2.925,19.0875 L5.425,23.4125 C5.575,23.6875 5.9125,23.7875 6.1875,23.6875 L9.3,22.4375 C9.95,22.9375 10.65,23.35 11.4125,23.6625 L11.8875,26.975 C11.925,27.275 12.1875,27.5 12.5,27.5 L17.5,27.5 C17.8125,27.5 18.075,27.275 18.1125,26.975 L18.5875,23.6625 C19.35,23.35 20.05,22.925 20.7,22.4375 L23.8125,23.6875 C24.1,23.8 24.425,23.6875 24.575,23.4125 L27.075,19.0875 C27.225,18.8125 27.1625,18.475 26.925,18.2875 L24.2875,16.225 Z M15,19.375 C12.5875,19.375 10.625,17.4125 10.625,15 C10.625,12.5875 12.5875,10.625 15,10.625 C17.4125,10.625 19.375,12.5875 19.375,15 C19.375,17.4125 17.4125,19.375 15,19.375 Z" id="Shape" fill="#FFFFFF" fill-rule="nonzero"></path>
            </g>
        </g>
    </g>
</svg>