<?xml version="1.0" encoding="UTF-8"?>
<svg width="12px" height="10px" viewBox="0 0 12 10" version="1.1" xmlns="http://www.w3.org/2000/svg" xmlns:xlink="http://www.w3.org/1999/xlink">
    <title>twitter</title>
    <defs>
        <path d="M12.6687915,2.1842815 C12.192714,2.473725 11.665404,2.6835655 11.1044385,2.7973235 C10.6552935,2.3059745 10.0162845,1.9994535 9.307845,1.9994535 C7.9480035,1.9994535 6.8457285,3.1303865 6.8457285,4.524221 C6.8457285,4.72186 6.867639,4.914922 6.909624,5.0991405 C4.863915,4.9939155 3.0496365,3.988643 1.835676,2.4612245 C1.623645,2.8336175 1.5026985,3.2673285 1.5026985,3.730008 C1.5026985,4.6065725 1.9375875,5.3797405 2.597454,5.8317365 C2.1941145,5.818017 1.8146835,5.7039485 1.4825025,5.515153 C1.4825025,5.515153 1.4825025,5.5462605 1.4825025,5.5462605 C1.4825025,6.769918 2.331288,7.7895195 3.457053,8.022843 C3.2505705,8.080182 3.033261,8.110979 2.808297,8.110979 C2.6493345,8.110979 2.4957855,8.0948215 2.344761,8.0655425 C2.658312,9.068676 3.5671725,9.798535 4.6440945,9.8192695 C3.8017755,10.4963665 2.739906,10.899568 1.5868035,10.899568 C1.3878405,10.899568 1.192185,10.887976 0.999432,10.865413 C2.089287,11.5809315 3.3824655,11.9993935 4.7733435,11.9993935 C9.3013785,11.9993935 11.7773595,8.151551 11.7773595,4.8148835 C11.7773595,4.8148835 11.7693135,4.488226 11.7693135,4.488226 C12.2519925,4.1332095 12.6701145,3.6885275 12.9995145,3.182539 C12.557889,3.3832255 12.0841875,3.519558 11.586186,3.580554 C12.094488,3.267938 12.4842195,2.7723225 12.6687915,2.1842815 Z" id="path-1"></path>
    </defs>
    <g id="Symbols" stroke="none" stroke-width="1" fill="none" fill-rule="evenodd">
        <g id="Twitter" transform="translate(-10, -21)">
            <g id="twitter" transform="translate(9, 19)">
                <use fill-opacity="0" fill="#000000" xlink:href="#path-1"></use>
                <use fill="#55ACEE" xlink:href="#path-1"></use>
            </g>
        </g>
    </g>
</svg>